<svg xmlns="http://www.w3.org/2000/svg" viewBox="0 0 1024 1024" width="1024" height="1024">
  <path d="M 429.0,737.5 L 321.5,737.0 L 210.5,421.0 L 174.5,317.0 L 171.5,308.0 L 172.0,305.5 L 253.0,305.5 L 254.5,307.0 L 359.5,617.0 L 372.5,654.0 L 376.0,657.5 L 389.5,619.0 L 440.5,451.0 L 486.5,306.0 L 563.5,306.0 L 561.5,316.0 L 499.5,512.0 L 488.5,551.0 L 429.0,737.5 Z" fill="white"/>
  <path d="M 836.0,737.5 L 746.0,737.5 L 616.0,531.5 L 554.5,604.0 L 550.5,607.0 L 550.5,500.0 L 719.0,305.5 L 815.0,305.5 L 815.5,307.0 L 668.5,475.0 L 775.5,640.0 L 836.5,736.0 L 836.0,737.5 Z" fill="white"/>
</svg>